# xmcd CD database file
#
# Track frame offsets:
#	150
#	9090
#	31890
#	47635
#	61197
#	80322
#	113815
#	131757
#	147335
#	159362
#	206485
#	225885
#
# Disc length: 3463 seconds
#
# Revision: 0
# Processed by: cddbd v1.5.1PL0 Copyright (c) Steve Scherf et al.
# Submitted via: CDex 1.51
#
DISCID=890d850c
DTITLE=Robert Sequoia - Essence Of Life
DYEAR=1999
DGENRE=New Age
TTITLE0=Essence Of Life (Prelude)
TTITLE1=The Healing Forest
TTITLE2=Song For The Moon
TTITLE3=Silver Feather
TTITLE4=Sequoia
TTITLE5=Streams And River
TTITLE6=Remembrances
TTITLE7=Looking At The Sky
TTITLE8=Melancholy Sunday Afternoon
TTITLE9=Opening
TTITLE10=A New Day
TTITLE11=Essence Of Life (Finale)
EXTD=YEAR: 1999
EXTT0=
EXTT1=
EXTT2=
EXTT3=
EXTT4=
EXTT5=
EXTT6=
EXTT7=
EXTT8=
EXTT9=
EXTT10=
EXTT11=
PLAYORDER=
